{
  "accessors": [
    {
      "bufferView": 3,
      "componentType": 5126,
      "count": 1572,
      "max": [
        1.7320499420166016,
        1.7320499420166016,
        1.7320499420166016
      ],
      "min": [
        -1.7320499420166016,
        -1.7320499420166016,
        -1.7320499420166016
      ],
      "type": "VEC3"
    },
    {
      "bufferView": 3,
      "byteOffset": 18864,
      "componentType": 5126,
      "count": 1572,
      "max": [
        1.0,
        1.0,
        1.0
      ],
      "min": [
        -1.0,
        -1.0,
        -1.0
      ],
      "type": "VEC3"
    },
    {
      "bufferView": 2,
      "componentType": 5126,
      "count": 1572,
      "max": [
        1.3746399879455566,
        0.9857699871063232
      ],
      "min": [
        0.0,
        0.04868000000715256
      ],
      "type": "VEC2"
    },
    {
      "bufferView": 1,
      "componentType": 5125,
      "count": 9216,
      "type": "SCALAR"
    },
    {
      "bufferView": 5,
      "componentType": 5126,
      "count": 2,
      "max": [
        1.0,
        0.0,
        0.0,
        0.0,
        0.0,
        1.0,
        0.0,
        0.0,
        0.0,
        1.0,
        1.0,
        0.0,
        0.0,
        0.0,
        0.0,
        1.0
      ],
      "min": [
        1.0,
        0.0,
        0.0,
        0.0,
        0.0,
        0.0,
        -1.0,
        0.0,
        0.0,
        0.0,
        0.0,
        0.0,
        0.0,
        0.0,
        0.0,
        1.0
      ],
      "type": "MAT4"
    },
    {
      "bufferView": 0,
      "componentType": 5123,
      "count": 1572,
      "type": "VEC4"
    },
    {
      "bufferView": 4,
      "componentType": 5126,
      "count": 1572,
      "max": [
        1.0,
        0.0,
        0.0,
        0.0
      ],
      "min": [
        1.0,
        0.0,
        0.0,
        0.0
      ],
      "type": "VEC4"
    },
    {
      "bufferView": 6,
      "componentType": 5126,
      "count": 12001,
      "max": [
        500.0
      ],
      "min": [
        0.0
      ],
      "type": "SCALAR"
    },
    {
      "bufferView": 7,
      "componentType": 5126,
      "count": 12001,
      "max": [
        0.7071067690849304,
        0.7070714235305786,
        0.7070714235305786,
        0.7071067690849304
      ],
      "min": [
        -0.007021570112556219,
        -0.7070714235305786,
        -0.7070714235305786,
        -0.007021570112556219
      ],
      "type": "VEC4"
    }
  ],
  "animations": [
    {
      "channels": [
        {
          "sampler": 0,
          "target": {
            "node": 4,
            "path": "rotation"
          }
        }
      ],
      "name": "ArmatureAction",
      "samplers": [
        {
          "input": 7,
          "interpolation": "LINEAR",
          "output": 8
        }
      ]
    }
  ],
  "asset": {
    "extras": {
      "author": "murilo.kleine (https://sketchfab.com/murilo.kleine)",
      "license": "CC-BY-4.0 (http://creativecommons.org/licenses/by/4.0/)",
      "source": "https://sketchfab.com/3d-models/jupiter-free-downloadable-model-61671f29ca0a4fa39dc9653290282418",
      "title": "Jupiter - Free Downloadable Model"
    },
    "generator": "Sketchfab-12.65.0",
    "version": "2.0"
  },
  "bufferViews": [
    {
      "buffer": 0,
      "byteLength": 12576,
      "byteStride": 8,
      "name": "shortBufferViews",
      "target": 34962
    },
    {
      "buffer": 0,
      "byteLength": 36864,
      "byteOffset": 12576,
      "name": "floatBufferViews",
      "target": 34963
    },
    {
      "buffer": 0,
      "byteLength": 12576,
      "byteOffset": 49440,
      "byteStride": 8,
      "name": "floatBufferViews",
      "target": 34962
    },
    {
      "buffer": 0,
      "byteLength": 37728,
      "byteOffset": 62016,
      "byteStride": 12,
      "name": "floatBufferViews",
      "target": 34962
    },
    {
      "buffer": 0,
      "byteLength": 25152,
      "byteOffset": 99744,
      "byteStride": 16,
      "name": "floatBufferViews",
      "target": 34962
    },
    {
      "buffer": 0,
      "byteLength": 128,
      "byteOffset": 124896,
      "name": "floatBufferViews"
    },
    {
      "buffer": 0,
      "byteLength": 48004,
      "byteOffset": 125024,
      "name": "floatBufferViews"
    },
    {
      "buffer": 0,
      "byteLength": 192016,
      "byteOffset": 173028,
      "byteStride": 16,
      "name": "floatBufferViews"
    }
  ],
  "buffers": [
    {
      "byteLength": 365044,
      "uri": "scene.bin"
    }
  ],
  "extensionsUsed": [
    "KHR_materials_clearcoat"
  ],
  "images": [
    {
      "uri": "textures/JUPITER_baseColor.png"
    }
  ],
  "materials": [
    {
      "doubleSided": true,
      "extensions": {
        "KHR_materials_clearcoat": {
          "clearcoatFactor": 0.885861280487805,
          "clearcoatRoughnessFactor": 0.0
        }
      },
      "name": "JUPITER",
      "pbrMetallicRoughness": {
        "baseColorTexture": {
          "index": 0
        },
        "metallicFactor": 0.1236661585,
        "roughnessFactor": 0.7578125
      }
    }
  ],
  "meshes": [
    {
      "name": "JUPITER",
      "primitives": [
        {
          "attributes": {
            "JOINTS_0": 5,
            "NORMAL": 1,
            "POSITION": 0,
            "TEXCOORD_0": 2,
            "WEIGHTS_0": 6
          },
          "indices": 3,
          "material": 0,
          "mode": 4
        }
      ]
    }
  ],
  "nodes": [
    {
      "children": [
        1
      ],
      "matrix": [
        1.111401081085205,
        0.0,
        0.0,
        0.0,
        0.0,
        2.4678061396281705e-16,
        -1.111401081085205,
        0.0,
        0.0,
        1.111401081085205,
        2.4678061396281705e-16,
        0.0,
        0.0,
        0.0,
        0.0,
        1.0
      ],
      "name": "Sketchfab_model"
    },
    {
      "children": [
        2
      ],
      "name": "Root"
    },
    {
      "children": [
        3,
        6,
        5
      ],
      "name": "Armature"
    },
    {
      "children": [
        4
      ],
      "name": "Armature_rootJoint"
    },
    {
      "name": "Bone_Armature",
      "rotation": [
        0.7071068286895752,
        0.0,
        0.0,
        0.7071068286895752
      ],
      "scale": [
        1.0,
        1.0,
        1.0
      ],
      "translation": [
        0.0,
        0.0,
        0.0
      ]
    },
    {
      "name": "JUPITER"
    },
    {
      "mesh": 0,
      "name": "JUPITER_0",
      "skin": 0
    }
  ],
  "samplers": [
    {
      "magFilter": 9729,
      "minFilter": 9987,
      "wrapS": 10497,
      "wrapT": 10497
    }
  ],
  "scene": 0,
  "scenes": [
    {
      "name": "Sketchfab_Scene",
      "nodes": [
        0
      ]
    }
  ],
  "skins": [
    {
      "inverseBindMatrices": 4,
      "joints": [
        3,
        4
      ],
      "skeleton": 3
    }
  ],
  "textures": [
    {
      "sampler": 0,
      "source": 0
    }
  ]
}
