{
  "accessors": [
    {
      "bufferView": 2,
      "componentType": 5126,
      "count": 25425,
      "max": [
        0.9799657464027405,
        0.998112142086029,
        0.9799658060073853
      ],
      "min": [
        -0.9799658060073853,
        -0.998112142086029,
        -0.9799659848213196
      ],
      "type": "VEC3"
    },
    {
      "bufferView": 2,
      "byteOffset": 305100,
      "componentType": 5126,
      "count": 25425,
      "max": [
        1.0,
        1.0,
        1.0
      ],
      "min": [
        -1.0,
        -1.0,
        -1.0
      ],
      "type": "VEC3"
    },
    {
      "bufferView": 1,
      "componentType": 5126,
      "count": 25425,
      "max": [
        1.0000001192092896,
        1.0
      ],
      "min": [
        0.0,
        0.0
      ],
      "type": "VEC2"
    },
    {
      "bufferView": 0,
      "componentType": 5125,
      "count": 149760,
      "type": "SCALAR"
    }
  ],
  "asset": {
    "extras": {
      "author": "AirStudios (https://sketchfab.com/sebbe613)",
      "license": "CC-BY-4.0 (http://creativecommons.org/licenses/by/4.0/)",
      "source": "https://sketchfab.com/3d-models/mars-5fc8b7168b044527a05ed3903c998b65",
      "title": "Mars"
    },
    "generator": "Sketchfab-12.68.0",
    "version": "2.0"
  },
  "bufferViews": [
    {
      "buffer": 0,
      "byteLength": 599040,
      "name": "floatBufferViews",
      "target": 34963
    },
    {
      "buffer": 0,
      "byteLength": 203400,
      "byteOffset": 599040,
      "byteStride": 8,
      "name": "floatBufferViews",
      "target": 34962
    },
    {
      "buffer": 0,
      "byteLength": 610200,
      "byteOffset": 802440,
      "byteStride": 12,
      "name": "floatBufferViews",
      "target": 34962
    }
  ],
  "buffers": [
    {
      "byteLength": 1412640,
      "uri": "scene.bin"
    }
  ],
  "images": [
    {
      "uri": "textures/lambert3_baseColor.jpeg"
    }
  ],
  "materials": [
    {
      "doubleSided": true,
      "name": "lambert3",
      "pbrMetallicRoughness": {
        "baseColorTexture": {
          "index": 0
        },
        "metallicFactor": 0.0,
        "roughnessFactor": 0.5671661528920344
      }
    }
  ],
  "meshes": [
    {
      "name": "pSphere1_lambert3_0",
      "primitives": [
        {
          "attributes": {
            "NORMAL": 1,
            "POSITION": 0,
            "TEXCOORD_0": 2
          },
          "indices": 3,
          "material": 0,
          "mode": 4
        }
      ]
    }
  ],
  "nodes": [
    {
      "children": [
        1
      ],
      "matrix": [
        1.0,
        0.0,
        0.0,
        0.0,
        0.0,
        2.220446049250313e-16,
        -1.0,
        0.0,
        0.0,
        1.0,
        2.220446049250313e-16,
        0.0,
        0.0,
        0.0,
        0.0,
        1.0
      ],
      "name": "Sketchfab_model"
    },
    {
      "children": [
        2
      ],
      "matrix": [
        1.0,
        0.0,
        0.0,
        0.0,
        0.0,
        0.0,
        1.0,
        0.0,
        0.0,
        -1.0,
        0.0,
        0.0,
        0.0,
        0.0,
        0.0,
        1.0
      ],
      "name": "bb9595e115604d53ae421356c9daac6d.fbx"
    },
    {
      "children": [
        3
      ],
      "name": "RootNode"
    },
    {
      "children": [
        4
      ],
      "matrix": [
        7.3374481201171875,
        0.0,
        0.0,
        0.0,
        0.0,
        7.3374481201171875,
        0.0,
        0.0,
        0.0,
        0.0,
        7.3374481201171875,
        0.0,
        0.0,
        0.0,
        0.0,
        1.0
      ],
      "name": "pSphere1"
    },
    {
      "mesh": 0,
      "name": "pSphere1_lambert3_0"
    }
  ],
  "samplers": [
    {
      "magFilter": 9729,
      "minFilter": 9987,
      "wrapS": 10497,
      "wrapT": 10497
    }
  ],
  "scene": 0,
  "scenes": [
    {
      "name": "Sketchfab_Scene",
      "nodes": [
        0
      ]
    }
  ],
  "textures": [
    {
      "sampler": 0,
      "source": 0
    }
  ]
}
