{
  "accessors": [
    {
      "bufferView": 2,
      "componentType": 5126,
      "count": 65532,
      "max": [
        192.0,
        192.0,
        52.40677261352539
      ],
      "min": [
        -52.40677261352539,
        -192.0,
        -53.56629180908203
      ],
      "type": "VEC3"
    },
    {
      "bufferView": 2,
      "byteOffset": 786384,
      "componentType": 5126,
      "count": 65532,
      "max": [
        1.0,
        1.0,
        0.27295026183128357
      ],
      "min": [
        -0.27295026183128357,
        -1.0,
        -0.2789958715438843
      ],
      "type": "VEC3"
    },
    {
      "bufferView": 1,
      "componentType": 5126,
      "count": 65532,
      "max": [
        1.0,
        1.0
      ],
      "min": [
        0.0,
        0.0
      ],
      "type": "VEC2"
    },
    {
      "bufferView": 1,
      "byteOffset": 524256,
      "componentType": 5126,
      "count": 65532,
      "max": [
        1.0,
        1.0
      ],
      "min": [
        0.0,
        0.0
      ],
      "type": "VEC2"
    },
    {
      "bufferView": 1,
      "byteOffset": 1048512,
      "componentType": 5126,
      "count": 65532,
      "max": [
        1.0,
        1.0
      ],
      "min": [
        0.0,
        0.0
      ],
      "type": "VEC2"
    },
    {
      "bufferView": 0,
      "componentType": 5125,
      "count": 381132,
      "type": "SCALAR"
    },
    {
      "bufferView": 2,
      "byteOffset": 1572768,
      "componentType": 5126,
      "count": 65532,
      "max": [
        185.03494262695313,
        192.0,
        104.90771484375
      ],
      "min": [
        -104.90771484375,
        -184.70932006835938,
        -103.89527893066406
      ],
      "type": "VEC3"
    },
    {
      "bufferView": 2,
      "byteOffset": 2359152,
      "componentType": 5126,
      "count": 65532,
      "max": [
        0.9637249708175659,
        1.0,
        0.5463931560516357
      ],
      "min": [
        -0.5463931560516357,
        -0.9620283246040344,
        -0.5411196947097778
      ],
      "type": "VEC3"
    },
    {
      "bufferView": 1,
      "byteOffset": 1572768,
      "componentType": 5126,
      "count": 65532,
      "max": [
        1.0,
        1.0
      ],
      "min": [
        0.0,
        0.08800005912780762
      ],
      "type": "VEC2"
    },
    {
      "bufferView": 1,
      "byteOffset": 2097024,
      "componentType": 5126,
      "count": 65532,
      "max": [
        1.0,
        1.0
      ],
      "min": [
        0.0,
        0.08800005912780762
      ],
      "type": "VEC2"
    },
    {
      "bufferView": 1,
      "byteOffset": 2621280,
      "componentType": 5126,
      "count": 65532,
      "max": [
        1.0,
        1.0
      ],
      "min": [
        0.0,
        0.08800005912780762
      ],
      "type": "VEC2"
    },
    {
      "bufferView": 0,
      "byteOffset": 1524528,
      "componentType": 5125,
      "count": 384624,
      "type": "SCALAR"
    },
    {
      "bufferView": 2,
      "byteOffset": 3145536,
      "componentType": 5126,
      "count": 65532,
      "max": [
        162.1109619140625,
        192.0,
        150.2190399169922
      ],
      "min": [
        -149.4647674560547,
        -161.46136474609375,
        -148.70458984375
      ],
      "type": "VEC3"
    },
    {
      "bufferView": 2,
      "byteOffset": 3931920,
      "componentType": 5126,
      "count": 65532,
      "max": [
        0.8443285226821899,
        1.0,
        0.7823909521102905
      ],
      "min": [
        -0.7784610986709595,
        -0.8409464955329895,
        -0.7745031118392944
      ],
      "type": "VEC3"
    },
    {
      "bufferView": 1,
      "byteOffset": 3145536,
      "componentType": 5126,
      "count": 65532,
      "max": [
        0.9570000171661377,
        1.0
      ],
      "min": [
        0.0,
        0.1820000410079956
      ],
      "type": "VEC2"
    },
    {
      "bufferView": 1,
      "byteOffset": 3669792,
      "componentType": 5126,
      "count": 65532,
      "max": [
        0.9570000171661377,
        1.0
      ],
      "min": [
        0.0,
        0.1820000410079956
      ],
      "type": "VEC2"
    },
    {
      "bufferView": 1,
      "byteOffset": 4194048,
      "componentType": 5126,
      "count": 65532,
      "max": [
        0.9570000171661377,
        1.0
      ],
      "min": [
        0.0,
        0.1820000410079956
      ],
      "type": "VEC2"
    },
    {
      "bufferView": 0,
      "byteOffset": 3063024,
      "componentType": 5125,
      "count": 385179,
      "type": "SCALAR"
    },
    {
      "bufferView": 2,
      "byteOffset": 4718304,
      "componentType": 5126,
      "count": 65532,
      "max": [
        181.45211791992188,
        192.0,
        181.84288024902344
      ],
      "min": [
        -181.45211791992188,
        -121.4534683227539,
        -181.45211791992188
      ],
      "type": "VEC3"
    },
    {
      "bufferView": 2,
      "byteOffset": 5504688,
      "componentType": 5126,
      "count": 65532,
      "max": [
        0.9450634121894836,
        1.0,
        0.9470987319946289
      ],
      "min": [
        -0.9450634121894836,
        -0.6325721144676208,
        -0.9450634121894836
      ],
      "type": "VEC3"
    },
    {
      "bufferView": 1,
      "byteOffset": 4718304,
      "componentType": 5126,
      "count": 65532,
      "max": [
        0.9100000262260437,
        1.0
      ],
      "min": [
        0.0,
        0.2820000648498535
      ],
      "type": "VEC2"
    },
    {
      "bufferView": 1,
      "byteOffset": 5242560,
      "componentType": 5126,
      "count": 65532,
      "max": [
        0.9100000262260437,
        1.0
      ],
      "min": [
        0.0,
        0.2820000648498535
      ],
      "type": "VEC2"
    },
    {
      "bufferView": 1,
      "byteOffset": 5766816,
      "componentType": 5126,
      "count": 65532,
      "max": [
        0.9100000262260437,
        1.0
      ],
      "min": [
        0.0,
        0.2820000648498535
      ],
      "type": "VEC2"
    },
    {
      "bufferView": 0,
      "byteOffset": 4603740,
      "componentType": 5125,
      "count": 385779,
      "type": "SCALAR"
    },
    {
      "bufferView": 2,
      "byteOffset": 6291072,
      "componentType": 5126,
      "count": 65532,
      "max": [
        192.0,
        192.0,
        192.0
      ],
      "min": [
        -192.0,
        -62.76250076293945,
        -192.0
      ],
      "type": "VEC3"
    },
    {
      "bufferView": 2,
      "byteOffset": 7077456,
      "componentType": 5126,
      "count": 65532,
      "max": [
        1.0,
        1.0,
        1.0
      ],
      "min": [
        -1.0,
        -0.3268906772136688,
        -1.0
      ],
      "type": "VEC3"
    },
    {
      "bufferView": 1,
      "byteOffset": 6291072,
      "componentType": 5126,
      "count": 65532,
      "max": [
        0.859000027179718,
        1.0
      ],
      "min": [
        0.0,
        0.3940000534057617
      ],
      "type": "VEC2"
    },
    {
      "bufferView": 1,
      "byteOffset": 6815328,
      "componentType": 5126,
      "count": 65532,
      "max": [
        0.859000027179718,
        1.0
      ],
      "min": [
        0.0,
        0.3940000534057617
      ],
      "type": "VEC2"
    },
    {
      "bufferView": 1,
      "byteOffset": 7339584,
      "componentType": 5126,
      "count": 65532,
      "max": [
        0.859000027179718,
        1.0
      ],
      "min": [
        0.0,
        0.3940000534057617
      ],
      "type": "VEC2"
    },
    {
      "bufferView": 0,
      "byteOffset": 6146856,
      "componentType": 5125,
      "count": 386433,
      "type": "SCALAR"
    },
    {
      "bufferView": 2,
      "byteOffset": 7863840,
      "componentType": 5126,
      "count": 65532,
      "max": [
        191.8143310546875,
        192.0,
        191.16363525390625
      ],
      "min": [
        -191.69309997558594,
        8.441878318786621,
        -191.7574920654297
      ],
      "type": "VEC3"
    },
    {
      "bufferView": 2,
      "byteOffset": 8650224,
      "componentType": 5126,
      "count": 65532,
      "max": [
        0.9990330338478088,
        1.0,
        0.9956439137458801
      ],
      "min": [
        -0.9984015822410583,
        0.043964698910713196,
        -0.9987369775772095
      ],
      "type": "VEC3"
    },
    {
      "bufferView": 1,
      "byteOffset": 7863840,
      "componentType": 5126,
      "count": 65532,
      "max": [
        0.8040000200271606,
        1.0
      ],
      "min": [
        0.0,
        0.5139999985694885
      ],
      "type": "VEC2"
    },
    {
      "bufferView": 1,
      "byteOffset": 8388096,
      "componentType": 5126,
      "count": 65532,
      "max": [
        0.8040000200271606,
        1.0
      ],
      "min": [
        0.0,
        0.5139999985694885
      ],
      "type": "VEC2"
    },
    {
      "bufferView": 1,
      "byteOffset": 8912352,
      "componentType": 5126,
      "count": 65532,
      "max": [
        0.8040000200271606,
        1.0
      ],
      "min": [
        0.0,
        0.5139999985694885
      ],
      "type": "VEC2"
    },
    {
      "bufferView": 0,
      "byteOffset": 7692588,
      "componentType": 5125,
      "count": 387162,
      "type": "SCALAR"
    },
    {
      "bufferView": 2,
      "byteOffset": 9436608,
      "componentType": 5126,
      "count": 65532,
      "max": [
        169.96441650390625,
        192.0,
        145.90057373046875
      ],
      "min": [
        -168.25088500976563,
        89.30900573730469,
        -168.49559020996094
      ],
      "type": "VEC3"
    },
    {
      "bufferView": 2,
      "byteOffset": 10222992,
      "componentType": 5126,
      "count": 65532,
      "max": [
        0.8852315545082092,
        1.0,
        0.7598987221717834
      ],
      "min": [
        -0.8763076066970825,
        0.46514827013015747,
        -0.8775824308395386
      ],
      "type": "VEC3"
    },
    {
      "bufferView": 1,
      "byteOffset": 9436608,
      "componentType": 5126,
      "count": 65532,
      "max": [
        0.7409999966621399,
        1.0
      ],
      "min": [
        0.0,
        0.6540000438690186
      ],
      "type": "VEC2"
    },
    {
      "bufferView": 1,
      "byteOffset": 9960864,
      "componentType": 5126,
      "count": 65532,
      "max": [
        0.7409999966621399,
        1.0
      ],
      "min": [
        0.0,
        0.6540000438690186
      ],
      "type": "VEC2"
    },
    {
      "bufferView": 1,
      "byteOffset": 10485120,
      "componentType": 5126,
      "count": 65532,
      "max": [
        0.7409999966621399,
        1.0
      ],
      "min": [
        0.0,
        0.6540000438690186
      ],
      "type": "VEC2"
    },
    {
      "bufferView": 0,
      "byteOffset": 9241236,
      "componentType": 5125,
      "count": 387993,
      "type": "SCALAR"
    },
    {
      "bufferView": 2,
      "byteOffset": 11009376,
      "componentType": 5126,
      "count": 50763,
      "max": [
        99.804931640625,
        192.0,
        181.09405517578125
      ],
      "min": [
        -96.6956558227539,
        12.055779457092285,
        -168.3176727294922
      ],
      "type": "VEC3"
    },
    {
      "bufferView": 2,
      "byteOffset": 11618532,
      "componentType": 5126,
      "count": 50763,
      "max": [
        0.5198143124580383,
        1.0,
        0.9431981444358826
      ],
      "min": [
        -0.5036222338676453,
        0.06278946995735168,
        -0.876655638217926
      ],
      "type": "VEC3"
    },
    {
      "bufferView": 1,
      "byteOffset": 11009376,
      "componentType": 5126,
      "count": 50763,
      "max": [
        0.9980000257492065,
        1.0
      ],
      "min": [
        0.0,
        0.5200000405311584
      ],
      "type": "VEC2"
    },
    {
      "bufferView": 1,
      "byteOffset": 11415480,
      "componentType": 5126,
      "count": 50763,
      "max": [
        0.9980000257492065,
        1.0
      ],
      "min": [
        0.0,
        0.5200000405311584
      ],
      "type": "VEC2"
    },
    {
      "bufferView": 1,
      "byteOffset": 11821584,
      "componentType": 5126,
      "count": 50763,
      "max": [
        0.9980000257492065,
        1.0
      ],
      "min": [
        0.0,
        0.5200000405311584
      ],
      "type": "VEC2"
    },
    {
      "bufferView": 0,
      "byteOffset": 10793208,
      "componentType": 5125,
      "count": 295698,
      "type": "SCALAR"
    },
    {
      "bufferView": 2,
      "byteOffset": 12227688,
      "componentType": 5126,
      "count": 202,
      "max": [
        978.3309936523438,
        478.4154968261719,
        -0.0
      ],
      "min": [
        -78.5,
        -578.4154663085938,
        -0.0
      ],
      "type": "VEC3"
    },
    {
      "bufferView": 2,
      "byteOffset": 12230112,
      "componentType": 5126,
      "count": 202,
      "max": [
        0.0,
        0.0,
        1.0
      ],
      "min": [
        0.0,
        0.0,
        1.0
      ],
      "type": "VEC3"
    },
    {
      "bufferView": 1,
      "byteOffset": 12227688,
      "componentType": 5126,
      "count": 202,
      "max": [
        1.0,
        1.0
      ],
      "min": [
        0.0,
        0.0
      ],
      "type": "VEC2"
    },
    {
      "bufferView": 0,
      "byteOffset": 11976000,
      "componentType": 5125,
      "count": 600,
      "type": "SCALAR"
    }
  ],
  "asset": {
    "extras": {
      "author": "uperesito (https://sketchfab.com/uperesito)",
      "license": "CC-BY-4.0 (http://creativecommons.org/licenses/by/4.0/)",
      "source": "https://sketchfab.com/3d-models/neptuno-e66566d149ec47d8b1365bd5e03e9e82",
      "title": "Neptuno"
    },
    "generator": "Sketchfab-12.68.0",
    "version": "2.0"
  },
  "bufferViews": [
    {
      "buffer": 0,
      "byteLength": 11978400,
      "name": "floatBufferViews",
      "target": 34963
    },
    {
      "buffer": 0,
      "byteLength": 12229304,
      "byteOffset": 11978400,
      "byteStride": 8,
      "name": "floatBufferViews",
      "target": 34962
    },
    {
      "buffer": 0,
      "byteLength": 12232536,
      "byteOffset": 24207704,
      "byteStride": 12,
      "name": "floatBufferViews",
      "target": 34962
    }
  ],
  "buffers": [
    {
      "byteLength": 36440240,
      "uri": "scene.bin"
    }
  ],
  "images": [
    {
      "uri": "textures/Mat.1_baseColor.jpeg"
    },
    {
      "uri": "textures/material_baseColor.png"
    }
  ],
  "materials": [
    {
      "doubleSided": true,
      "name": "Mat.1",
      "pbrMetallicRoughness": {
        "baseColorTexture": {
          "index": 0
        },
        "metallicFactor": 0.0,
        "roughnessFactor": 0.6
      }
    },
    {
      "alphaMode": "BLEND",
      "doubleSided": true,
      "name": "material",
      "pbrMetallicRoughness": {
        "baseColorTexture": {
          "index": 1
        },
        "metallicFactor": 0.0,
        "roughnessFactor": 0.6
      }
    }
  ],
  "meshes": [
    {
      "name": "Esfera_Mat.1_0",
      "primitives": [
        {
          "attributes": {
            "NORMAL": 1,
            "POSITION": 0,
            "TEXCOORD_0": 2,
            "TEXCOORD_1": 3,
            "TEXCOORD_2": 4
          },
          "indices": 5,
          "material": 0,
          "mode": 4
        }
      ]
    },
    {
      "name": "Esfera_Mat.1_0",
      "primitives": [
        {
          "attributes": {
            "NORMAL": 7,
            "POSITION": 6,
            "TEXCOORD_0": 8,
            "TEXCOORD_1": 9,
            "TEXCOORD_2": 10
          },
          "indices": 11,
          "material": 0,
          "mode": 4
        }
      ]
    },
    {
      "name": "Esfera_Mat.1_0",
      "primitives": [
        {
          "attributes": {
            "NORMAL": 13,
            "POSITION": 12,
            "TEXCOORD_0": 14,
            "TEXCOORD_1": 15,
            "TEXCOORD_2": 16
          },
          "indices": 17,
          "material": 0,
          "mode": 4
        }
      ]
    },
    {
      "name": "Esfera_Mat.1_0",
      "primitives": [
        {
          "attributes": {
            "NORMAL": 19,
            "POSITION": 18,
            "TEXCOORD_0": 20,
            "TEXCOORD_1": 21,
            "TEXCOORD_2": 22
          },
          "indices": 23,
          "material": 0,
          "mode": 4
        }
      ]
    },
    {
      "name": "Esfera_Mat.1_0",
      "primitives": [
        {
          "attributes": {
            "NORMAL": 25,
            "POSITION": 24,
            "TEXCOORD_0": 26,
            "TEXCOORD_1": 27,
            "TEXCOORD_2": 28
          },
          "indices": 29,
          "material": 0,
          "mode": 4
        }
      ]
    },
    {
      "name": "Esfera_Mat.1_0",
      "primitives": [
        {
          "attributes": {
            "NORMAL": 31,
            "POSITION": 30,
            "TEXCOORD_0": 32,
            "TEXCOORD_1": 33,
            "TEXCOORD_2": 34
          },
          "indices": 35,
          "material": 0,
          "mode": 4
        }
      ]
    },
    {
      "name": "Esfera_Mat.1_0",
      "primitives": [
        {
          "attributes": {
            "NORMAL": 37,
            "POSITION": 36,
            "TEXCOORD_0": 38,
            "TEXCOORD_1": 39,
            "TEXCOORD_2": 40
          },
          "indices": 41,
          "material": 0,
          "mode": 4
        }
      ]
    },
    {
      "name": "Esfera_Mat.1_0",
      "primitives": [
        {
          "attributes": {
            "NORMAL": 43,
            "POSITION": 42,
            "TEXCOORD_0": 44,
            "TEXCOORD_1": 45,
            "TEXCOORD_2": 46
          },
          "indices": 47,
          "material": 0,
          "mode": 4
        }
      ]
    },
    {
      "name": "Plano_Mat_0",
      "primitives": [
        {
          "attributes": {
            "NORMAL": 49,
            "POSITION": 48,
            "TEXCOORD_0": 50
          },
          "indices": 51,
          "material": 1,
          "mode": 4
        }
      ]
    }
  ],
  "nodes": [
    {
      "children": [
        1
      ],
      "matrix": [
        1.0,
        0.0,
        0.0,
        0.0,
        0.0,
        2.220446049250313e-16,
        -1.0,
        0.0,
        0.0,
        1.0,
        2.220446049250313e-16,
        0.0,
        0.0,
        0.0,
        0.0,
        1.0
      ],
      "name": "Sketchfab_model"
    },
    {
      "children": [
        2
      ],
      "matrix": [
        1.0,
        0.0,
        0.0,
        0.0,
        0.0,
        0.0,
        1.0,
        0.0,
        0.0,
        -1.0,
        0.0,
        0.0,
        0.0,
        0.0,
        0.0,
        1.0
      ],
      "name": "Neptuno.fbx"
    },
    {
      "children": [
        3,
        5,
        14,
        17
      ],
      "name": "RootNode"
    },
    {
      "children": [
        4
      ],
      "matrix": [
        0.7665168941636464,
        -0.2427686753988845,
        -0.5945714601347665,
        0.0,
        0.19182488444668463,
        0.9700842078113998,
        -0.14879463519208289,
        0.0,
        0.6129070603841444,
        5.551115123125783e-17,
        0.7901550071544613,
        0.0,
        -642.1936645507813,
        184.3281707763672,
        501.33770751953125,
        1.0
      ],
      "name": "Cinema_4D_Editor"
    },
    {
      "name": "Object_4"
    },
    {
      "children": [
        6,
        7,
        8,
        9,
        10,
        11,
        12,
        13
      ],
      "matrix": [
        -0.502051990963609,
        0.15017744550879686,
        -0.8516986164306766,
        0.0,
        3.469446951953614e-16,
        0.9848077530122084,
        0.17364817766692864,
        0.0,
        0.8648374404299783,
        0.08718041332488374,
        -0.4944246931161773,
        0.0,
        0.0,
        0.0,
        0.0,
        1.0
      ],
      "name": "Esfera"
    },
    {
      "mesh": 0,
      "name": "Esfera_Mat.1_0"
    },
    {
      "mesh": 1,
      "name": "Esfera_Mat.1_0"
    },
    {
      "mesh": 2,
      "name": "Esfera_Mat.1_0"
    },
    {
      "mesh": 3,
      "name": "Esfera_Mat.1_0"
    },
    {
      "mesh": 4,
      "name": "Esfera_Mat.1_0"
    },
    {
      "mesh": 5,
      "name": "Esfera_Mat.1_0"
    },
    {
      "mesh": 6,
      "name": "Esfera_Mat.1_0"
    },
    {
      "mesh": 7,
      "name": "Esfera_Mat.1_0"
    },
    {
      "children": [
        15
      ],
      "matrix": [
        1.0,
        0.0,
        0.0,
        0.0,
        0.0,
        2.220446049250313e-16,
        1.0,
        0.0,
        0.0,
        -1.0,
        2.220446049250313e-16,
        0.0,
        0.0,
        0.0,
        0.0,
        1.0
      ],
      "name": "Luz"
    },
    {
      "children": [
        16
      ],
      "matrix": [
        1.0,
        0.0,
        0.0,
        0.0,
        0.0,
        2.220446049250313e-16,
        1.0,
        0.0,
        0.0,
        -1.0,
        2.220446049250313e-16,
        0.0,
        0.0,
        0.0,
        0.0,
        1.0
      ],
      "name": "Object_15"
    },
    {
      "name": "Object_16"
    },
    {
      "children": [
        18
      ],
      "matrix": [
        1.0,
        0.0,
        0.0,
        0.0,
        0.0,
        0.1736481776669303,
        -0.9848077530122081,
        0.0,
        0.0,
        0.9848077530122081,
        0.1736481776669303,
        0.0,
        0.0,
        0.0,
        0.0,
        1.0
      ],
      "name": "Anillos"
    },
    {
      "children": [
        19
      ],
      "matrix": [
        1.0,
        0.0,
        0.0,
        0.0,
        0.0,
        1.0,
        0.0,
        0.0,
        0.0,
        0.0,
        1.0,
        0.0,
        -450.0,
        50.0,
        1.7763568394002505e-15,
        1.0
      ],
      "name": "Plano"
    },
    {
      "mesh": 8,
      "name": "Plano_Mat_0"
    }
  ],
  "samplers": [
    {
      "magFilter": 9729,
      "minFilter": 9987,
      "wrapS": 10497,
      "wrapT": 10497
    }
  ],
  "scene": 0,
  "scenes": [
    {
      "name": "Sketchfab_Scene",
      "nodes": [
        0
      ]
    }
  ],
  "textures": [
    {
      "sampler": 0,
      "source": 0
    },
    {
      "sampler": 0,
      "source": 1
    }
  ]
}
